<svg xmlns="http://www.w3.org/2000/svg" width="245" height="64" viewBox="0 0 245 64">
    <defs>
        <linearGradient id="py1wupf33a" x1="100%" x2="0%" y1=".095%" y2="99.905%">
            <stop offset="0%" stop-color="#D22C4E"/>
            <stop offset="41.677%" stop-color="#EE384E"/>
            <stop offset="100%" stop-color="#EF5662"/>
        </linearGradient>
    </defs>
    <g fill="none" fill-rule="evenodd">
        <g>
            <g>
                <g>
                    <g>
                        <path fill="#EE384E" d="M214.852 26.353c-.73 0-1.256.525-1.256 1.255v8.784c0 1.71-.8 2.51-2.513 2.51h-11.305V29.49c0-5.315-4.101-9.412-9.421-9.412h-8.165c-.76 0-2.054.021-2.513.628l-2.512 3.765c-.484.639-.174 1.882.628 1.882h12.562c1.712 0 3.14 1.427 3.14 3.137v9.412h-26.38c-.731 0-1.256.524-1.256 1.255v3.765c0 .73.525 1.254 1.257 1.254h5.024c0 1.71-2.056 3.765-3.768 3.765h-11.306c-1.712 0-2.512-.8-2.512-2.51V33.882c0-.73-.525-1.255-1.256-1.255h-3.769c-.73 0-1.256.525-1.256 1.255v12.55c0 5.646 3.14 8.784 8.793 8.784h11.306c5.32 0 10.049-4.725 10.049-10.04h20.099c.73 0 1.256-.526 1.256-1.254v-1.255l1.37 1.743c.46.606 1.01.766 1.77.766h8.165c5.32 0 8.794-3.469 8.794-8.784v-8.784c0-.73-.526-1.255-1.257-1.255h-3.768zm-8.793 22.588c-.732 0-1.256.524-1.256 1.255v3.765c0 .73.524 1.255 1.256 1.255h10.05c.73 0 1.255-.524 1.255-1.255v-3.765c0-.73-.524-1.255-1.256-1.255h-10.05zm-22.611 0c-.732 0-1.256.524-1.256 1.255v3.765c0 .73.524 1.255 1.256 1.255h4.396c.732 0 1.256-.524 1.256-1.255v-3.765c0-.73-.524-1.255-1.256-1.255h-4.396zM224.9 20.078c-.73 0-1.256.525-1.256 1.255v3.765c0 .73.525 1.255 1.256 1.255h11.306c1.712 0 2.512.8 2.512 2.51v7.53c0 1.71-.8 2.509-2.512 2.509H224.9c-.73 0-1.256.524-1.256 1.255v3.765c0 .73.525 1.254 1.256 1.254h11.306c5.32 0 8.793-3.469 8.793-8.784v-7.53c0-5.314-3.473-8.784-8.793-8.784H224.9zm-97.353 0l6.343-8.162c.619-.747.087-1.877-.884-1.877h-4.826c-.768 0-1.497.343-1.987.935l-10.58 13.497c-.72.87-.502 1.882.629 1.882h14.446c3.595 0 6.28 2.683 6.28 6.274v6.275h-25.123c-1.611 0-2.512-.822-2.512-2.51V16.314c0-.73-.526-1.255-1.256-1.255h-3.769c-.731 0-1.256.525-1.256 1.255v20.078c0 5.647 4.396 8.784 10.05 8.784h28.891c.73 0 1.256-.526 1.256-1.254V32.627c0-7.196-5.358-12.549-12.561-12.549h-3.14zm-33.288-5.02c-.731 0-1.256.526-1.256 1.256v20.078c0 1.71-.8 2.51-2.513 2.51H76.673c-.73 0-1.256.525-1.256 1.255v3.765c0 .73.525 1.254 1.256 1.254h13.818c5.653 0 8.793-3.137 8.793-8.784V16.314c0-.73-.525-1.255-1.256-1.255H94.26zM78.957 33.543L74.16 16.314c-.197-.7.53-1.255 1.256-1.255h3.34c.667 0 1.397.29 1.578.931l5.152 17.432c.196.694-.249 1.227-.97 1.227H80.42c-.681 0-1.28-.452-1.464-1.107z" transform="translate(-972 -160) translate(150 125) translate(687 35) translate(135)"/>
                        <g>
                            <path fill="url(#py1wupf33a)" d="M3.312 0C1.483 0 0 1.48 0 3.308l.016 57.395C.022 62.526 1.503 64 3.328 64h37.07C53.467 64 64.06 53.418 64.06 40.365v-16.73C64.061 10.582 53.467 0 40.398 0H3.312z" transform="translate(-972 -160) translate(150 125) translate(687 35) translate(135)"/>
                            <path fill="#FFF" d="M32.03 42.278c-7.02 0-13.653-3.145-18.099-8.5-.664-.8-.493-2.001.36-2.597l2.978-2.08c.76-.532 1.79-.386 2.396.316 3.083 3.578 7.595 5.672 12.366 5.672 4.77 0 9.283-2.094 12.366-5.672.605-.702 1.635-.848 2.395-.317l2.978 2.08c.853.597 1.025 1.798.36 2.599-4.446 5.354-11.079 8.5-18.1 8.5" transform="translate(-972 -160) translate(150 125) translate(687 35) translate(135)"/>
                        </g>
                    </g>
                </g>
            </g>
        </g>
    </g>
</svg>
