<?xml version="1.0"?>
<svg xmlns="http://www.w3.org/2000/svg" xmlns:xlink="http://www.w3.org/1999/xlink" xmlns:svgjs="http://svgjs.com/svgjs" version="1.1" width="512" height="512" x="0" y="0" viewBox="0 0 512 512" style="enable-background:new 0 0 512 512" xml:space="preserve" class=""><g>
<g xmlns="http://www.w3.org/2000/svg">
	<g>
		<path d="M469.333,184.987v-80.625c0-51.739-41.957-93.696-93.696-93.696H136.363c-51.739,0-93.696,41.957-93.696,93.696v80.625    C17.808,193.772,0,217.461,0,245.333v146.837c0,24.945,20.218,45.163,45.163,45.163H64V480c0,11.782,9.551,21.333,21.333,21.333    c11.782,0,21.333-9.551,21.333-21.333v-42.667h298.667V480c0,11.782,9.551,21.333,21.333,21.333S448,491.782,448,480v-42.667    h18.837c24.945,0,45.163-20.218,45.163-45.163V245.333C512,217.461,494.192,193.772,469.333,184.987z M128,266.667h256v42.667H128    V266.667z M85.333,104.363c0-28.175,22.854-51.029,51.029-51.029h239.275c28.175,0,51.029,22.854,51.029,51.029v80.61    c-0.131,0.046-0.259,0.099-0.39,0.146c-0.283,0.102-0.563,0.211-0.844,0.317c-0.624,0.235-1.244,0.479-1.859,0.733    c-0.297,0.123-0.593,0.246-0.888,0.373c-0.645,0.278-1.282,0.568-1.916,0.866c-0.227,0.107-0.458,0.209-0.684,0.319    c-0.846,0.41-1.681,0.837-2.506,1.283c-0.166,0.09-0.327,0.186-0.491,0.277c-0.661,0.365-1.316,0.741-1.963,1.128    c-0.266,0.16-0.53,0.324-0.793,0.488c-0.555,0.344-1.104,0.695-1.647,1.056c-0.259,0.171-0.518,0.342-0.774,0.517    c-0.619,0.423-1.229,0.859-1.833,1.303c-0.152,0.112-0.307,0.219-0.458,0.332c-0.745,0.559-1.477,1.135-2.196,1.726    c-0.191,0.157-0.377,0.32-0.567,0.48c-0.531,0.446-1.055,0.898-1.571,1.36c-0.236,0.212-0.469,0.426-0.702,0.641    c-0.48,0.444-0.953,0.895-1.419,1.353c-0.211,0.207-0.424,0.413-0.633,0.623c-0.604,0.61-1.198,1.231-1.778,1.865    c-0.05,0.055-0.103,0.107-0.153,0.162c-0.626,0.69-1.234,1.396-1.83,2.113c-0.179,0.215-0.352,0.435-0.527,0.652    c-0.419,0.517-0.831,1.04-1.234,1.571c-0.193,0.254-0.384,0.509-0.573,0.766c-0.399,0.542-0.788,1.091-1.171,1.646    c-0.155,0.225-0.313,0.446-0.465,0.673c-0.52,0.776-1.027,1.561-1.513,2.361c-0.062,0.102-0.119,0.207-0.18,0.309    c-0.422,0.702-0.831,1.413-1.226,2.133c-0.146,0.267-0.287,0.536-0.43,0.805c-0.307,0.579-0.607,1.162-0.897,1.751    c-0.141,0.287-0.282,0.574-0.419,0.863c-0.305,0.644-0.598,1.296-0.882,1.952c-0.094,0.218-0.194,0.432-0.286,0.651    c-0.366,0.87-0.713,1.75-1.04,2.64c-0.074,0.201-0.14,0.405-0.212,0.606c-0.023,0.063-0.044,0.127-0.067,0.19H124.348    c-0.022-0.062-0.043-0.124-0.065-0.186c-0.073-0.203-0.139-0.41-0.214-0.612c-0.328-0.889-0.675-1.768-1.04-2.638    c-0.092-0.218-0.191-0.432-0.285-0.649c-0.285-0.657-0.578-1.309-0.884-1.955c-0.137-0.289-0.277-0.575-0.418-0.861    c-0.29-0.59-0.59-1.174-0.898-1.753c-0.142-0.268-0.283-0.537-0.429-0.803c-0.396-0.72-0.805-1.432-1.227-2.135    c-0.061-0.102-0.118-0.206-0.18-0.308c-0.487-0.799-0.993-1.585-1.513-2.361c-0.152-0.227-0.31-0.448-0.465-0.673    c-0.382-0.555-0.772-1.105-1.171-1.647c-0.189-0.256-0.379-0.511-0.572-0.764c-0.403-0.531-0.815-1.053-1.234-1.571    c-0.177-0.218-0.35-0.438-0.529-0.654c-0.596-0.716-1.203-1.422-1.829-2.112c-0.05-0.055-0.103-0.107-0.153-0.162    c-0.58-0.634-1.173-1.254-1.777-1.864c-0.209-0.211-0.422-0.416-0.634-0.624c-0.466-0.457-0.937-0.908-1.417-1.351    c-0.233-0.215-0.467-0.43-0.703-0.642c-0.516-0.463-1.04-0.915-1.571-1.361c-0.189-0.159-0.375-0.322-0.566-0.479    c-0.72-0.59-1.451-1.167-2.196-1.726c-0.151-0.113-0.306-0.22-0.457-0.331c-0.603-0.445-1.214-0.88-1.833-1.303    c-0.256-0.175-0.516-0.346-0.775-0.518c-0.543-0.36-1.091-0.711-1.645-1.054c-0.264-0.164-0.528-0.328-0.794-0.488    c-0.648-0.388-1.303-0.764-1.965-1.13c-0.164-0.09-0.324-0.186-0.488-0.275c-0.824-0.446-1.66-0.873-2.506-1.283    c-0.227-0.11-0.457-0.212-0.685-0.32c-0.633-0.298-1.27-0.588-1.914-0.865c-0.295-0.127-0.592-0.251-0.889-0.373    c-0.614-0.254-1.233-0.497-1.857-0.732c-0.282-0.106-0.562-0.215-0.846-0.317c-0.131-0.047-0.259-0.1-0.39-0.146V104.363z     M469.333,392.171c0,1.381-1.115,2.496-2.496,2.496H45.163c-1.381,0-2.496-1.115-2.496-2.496V245.333    C42.667,233.542,52.209,224,64,224s21.333,9.542,21.333,21.333V352h341.333V245.333c0-11.791,9.542-21.333,21.333-21.333    s21.333,9.542,21.333,21.333V392.171z" fill="#00bfd6" data-original="#000000" style="" class=""/>
	</g>
</g>
<g xmlns="http://www.w3.org/2000/svg">
</g>
<g xmlns="http://www.w3.org/2000/svg">
</g>
<g xmlns="http://www.w3.org/2000/svg">
</g>
<g xmlns="http://www.w3.org/2000/svg">
</g>
<g xmlns="http://www.w3.org/2000/svg">
</g>
<g xmlns="http://www.w3.org/2000/svg">
</g>
<g xmlns="http://www.w3.org/2000/svg">
</g>
<g xmlns="http://www.w3.org/2000/svg">
</g>
<g xmlns="http://www.w3.org/2000/svg">
</g>
<g xmlns="http://www.w3.org/2000/svg">
</g>
<g xmlns="http://www.w3.org/2000/svg">
</g>
<g xmlns="http://www.w3.org/2000/svg">
</g>
<g xmlns="http://www.w3.org/2000/svg">
</g>
<g xmlns="http://www.w3.org/2000/svg">
</g>
<g xmlns="http://www.w3.org/2000/svg">
</g>
</g></svg>
