<?xml version="1.0"?>
<svg xmlns="http://www.w3.org/2000/svg" xmlns:xlink="http://www.w3.org/1999/xlink" xmlns:svgjs="http://svgjs.com/svgjs" version="1.1" width="512" height="512" x="0" y="0" viewBox="0 0 512 512" style="enable-background:new 0 0 512 512" xml:space="preserve" class=""><g><g xmlns="http://www.w3.org/2000/svg"><path d="m512 269.5c0-12.958-10.542-23.5-23.5-23.5h-40.352c-4.142 0-7.5 3.357-7.5 7.5s3.358 7.5 7.5 7.5h40.352c4.687 0 8.5 3.813 8.5 8.5s-3.813 8.5-8.5 8.5h-465c-4.687 0-8.5-3.813-8.5-8.5s3.813-8.5 8.5-8.5h235.622c.005 0 .01.001.015.001s.01-.001.015-.001h157.182c4.142 0 7.5-3.357 7.5-7.5s-3.358-7.5-7.5-7.5h-23.779l-35.864-61.872c-8.224-14.188-20.428-25.311-35.293-32.163l-16.621-7.664c-12.042-5.551-21.931-14.563-28.597-26.063l-17.385-29.991c1.366-3.213 1.271-7.004-.611-10.249l-17.285-29.821c-3.18-5.483-10.229-7.364-15.716-4.182l-48.448 28.083c-1.423.825-2.62 1.926-3.554 3.222v-20.157c2.794-2.095 4.613-5.422 4.613-9.175v-34.468c0-6.341-5.159-11.5-11.5-11.5h-56c-6.341 0-11.5 5.159-11.5 11.5v34.468c0 3.893 1.953 7.334 4.927 9.41v34.272c0 9.202-1.922 18.11-5.712 26.478-1.709 3.772-.037 8.217 3.736 9.927 3.773 1.707 8.218.036 9.927-3.737 4.678-10.324 7.049-21.315 7.049-32.667v-32.209h39.46v32.368c0 16.391 4.982 32.134 14.409 45.529l10.538 14.958c7.63 10.842 11.664 23.6 11.664 36.894v3.59h-113v-3.431c0-13.379 4.089-26.21 11.826-37.107 2.397-3.378 1.604-8.06-1.774-10.457s-8.06-1.604-10.458 1.773c-9.547 13.449-14.594 29.283-14.594 45.791v58.65h-43.292c-12.958 0-23.5 10.542-23.5 23.5 0 11.242 7.937 20.661 18.5 22.959v155.041c0 26.191 21.309 47.5 47.5 47.5h12.799c2.646 9.781 11.594 17 22.201 17s19.555-7.219 22.201-17h17.598c2.646 9.781 11.594 17 22.201 17s19.555-7.219 22.201-17h17.598c2.646 9.781 11.594 17 22.201 17s19.555-7.219 22.201-17h17.598c2.646 9.781 11.594 17 22.201 17s19.555-7.219 22.201-17h17.598c2.646 9.781 11.594 17 22.201 17s19.555-7.219 22.201-17h17.598c2.646 9.781 11.594 17 22.201 17s19.555-7.219 22.201-17h12.799c26.191 0 47.5-21.309 47.5-47.5v-155.041c10.563-2.298 18.5-11.717 18.5-22.959zm-224.98-23.5 66.014-38.271 22.184 38.271zm11.476-88.077 16.621 7.663c12.042 5.553 21.931 14.565 28.596 26.063l1.798 3.102-88.398 51.249h-12.432c-5.744-10.968-8.175-23.205-7.031-35.57l1.673-18.089c1.519-16.414-2.057-32.643-10.339-46.931l-16.15-27.863 9.292-5.386 24.844-14.401 16.231 28.001c8.226 14.188 20.43 25.309 35.295 32.162zm-68.819-99.196 13.762 23.743-42.393 24.572-13.762-23.742zm-66.884-43.727v27.44h-49v-27.44zm22.061 111.703c-7.637-10.852-11.673-23.609-11.673-36.894v-.93l16.656 28.734c1.951 3.366 5.366 5.349 8.977 5.655l17.193 29.663c6.713 11.58 9.611 24.729 8.38 38.027l-1.673 18.089c-1.175 12.7.713 25.285 5.459 36.951h-18.383v-58.81c0-16.401-4.979-32.144-14.399-45.529zm-103.064 79.077h113v40.22h-113zm89.21 283.22c0 4.411-3.589 8-8 8s-8-3.589-8-8v-140c0-4.411 3.589-8 8-8s8 3.589 8 8zm62 0c0 4.411-3.589 8-8 8s-8-3.589-8-8v-140c0-4.411 3.589-8 8-8s8 3.589 8 8zm62 0c0 4.411-3.589 8-8 8s-8-3.589-8-8v-140c0-4.411 3.589-8 8-8s8 3.589 8 8zm62 0c0 4.411-3.589 8-8 8s-8-3.589-8-8v-140c0-4.411 3.589-8 8-8s8 3.589 8 8zm62 0c0 4.411-3.589 8-8 8s-8-3.589-8-8v-140c0-4.411 3.589-8 8-8s8 3.589 8 8zm59.5-41.5c0 17.921-14.58 32.5-32.5 32.5h-12v-131c0-12.683-10.318-23-23-23s-23 10.317-23 23v131h-16v-131c0-12.683-10.318-23-23-23s-23 10.317-23 23v131h-16v-131c0-12.683-10.318-23-23-23s-23 10.317-23 23v131h-16v-131c0-12.683-10.318-23-23-23s-23 10.317-23 23v131h-16v-131c0-12.683-10.318-23-23-23s-23 10.317-23 23v131h-16v-131c0-12.683-10.318-23-23-23s-23 10.317-23 23v66.492c0 4.143 3.358 7.5 7.5 7.5s7.5-3.357 7.5-7.5v-66.492c0-4.411 3.589-8 8-8s8 3.589 8 8v140c0 4.411-3.589 8-8 8s-8-3.589-8-8v-41.275c0-4.143-3.358-7.5-7.5-7.5s-7.5 3.357-7.5 7.5v32.275h-12c-17.92 0-32.5-14.579-32.5-32.5v-154.5h445z" fill="#00bfd6" data-original="#000000" style=""/></g></g></svg>
