<?xml version="1.0"?>
<svg xmlns="http://www.w3.org/2000/svg" xmlns:xlink="http://www.w3.org/1999/xlink" xmlns:svgjs="http://svgjs.com/svgjs" version="1.1" width="512" height="512" x="0" y="0" viewBox="0 0 128 128" style="enable-background:new 0 0 512 512" xml:space="preserve" class=""><g><g xmlns="http://www.w3.org/2000/svg"><path d="m102.749 94.984a7.765 7.765 0 0 0 -5.491 13.255 7.765 7.765 0 1 0 5.491-13.256zm3.016 10.781a4.265 4.265 0 1 1 0-6.032 4.241 4.241 0 0 1 0 6.032z" fill="#00bfd6" data-original="#000000" style=""/><path d="m88.83 59.8 16.092-16.092 9.5-9.5 11.1-11.1a8.461 8.461 0 0 0 0-11.969l-8.663-8.664a8.474 8.474 0 0 0 -11.969 0l-11.1 11.1-9.5 9.5-16.09 16.095-29.413-29.409-9.248-9.248a1.749 1.749 0 0 0 -2.475 0l-26.551 26.552a1.749 1.749 0 0 0 0 2.475l38.657 38.66-28.733 28.729a2.141 2.141 0 0 0 -.413.654l-4.5 12.746-5.424 15.338a1.75 1.75 0 0 0 2.233 2.233l15.338-5.42 12.745-4.505a2.12 2.12 0 0 0 .654-.413l28.73-28.732 38.658 38.657a1.748 1.748 0 0 0 2.474 0l26.552-26.552a1.749 1.749 0 0 0 0-2.475zm18.532-54.846a4.971 4.971 0 0 1 7.021 0l8.663 8.664a4.962 4.962 0 0 1 0 7.019l-9.86 9.86-15.686-15.684zm-12.334 12.334 15.684 15.684-7.027 7.028-15.685-15.685zm-53.384 48.434-37.419-37.422 24.075-24.075 6.774 6.775-7.786 7.785a1.75 1.75 0 1 0 2.475 2.474l7.785-7.785 6.941 6.941-7.789 7.785a1.75 1.75 0 1 0 2.475 2.474l7.785-7.785 6.941 6.941-7.781 7.783a1.75 1.75 0 1 0 2.48 2.475l7.78-7.788 9.343 9.343-3.617 3.616zm-28.684 34.062c2.414-.206 8.627-.345 12.114 3.142s3.347 9.7 3.142 12.114l-10.671 3.772-4.178-4.179-4.179-4.178zm-8.339 23.6 3.279-9.272 5.993 5.993zm22.928-22.928c-3.239-3.24-7.944-4.1-11.444-4.241l69.421-69.424 15.684 15.683-69.421 69.42c-.136-3.5-1.001-8.204-4.24-11.443zm72.151 23.319-37.423-37.42 24.078-24.077 5.213 5.213-7.785 7.785a1.75 1.75 0 1 0 2.475 2.475l7.785-7.785 6.941 6.941-7.784 7.785a1.75 1.75 0 1 0 2.475 2.475l7.785-7.785 20.315 20.318z" fill="#00bfd6" data-original="#000000" style=""/></g></g></svg>
