<?xml version="1.0"?>
<svg xmlns="http://www.w3.org/2000/svg" xmlns:xlink="http://www.w3.org/1999/xlink" xmlns:svgjs="http://svgjs.com/svgjs" version="1.1" width="512" height="512" x="0" y="0" viewBox="0 0 512 512" style="enable-background:new 0 0 512 512" xml:space="preserve"><g>
<g xmlns="http://www.w3.org/2000/svg">
	<g>
		<path d="M490.035,489.584L273.27,90.231l36.807-67.811c3.998-7.367,1.268-16.58-6.098-20.578c-7.368-4-16.58-1.269-20.578,6.098    L256,58.421l-27.4-50.482c-3.998-7.367-13.213-10.096-20.578-6.098c-7.367,3.998-10.096,13.211-6.098,20.578l36.812,67.82    L21.965,489.584c-2.553,4.703-2.44,10.402,0.295,15c2.736,4.598,7.691,7.416,13.043,7.416h313.444c0.029,0,127.951,0,127.951,0    c5.351,0,10.306-2.818,13.043-7.416C492.475,499.987,492.587,494.286,490.035,489.584z M188.682,481.648L256,357.626    l67.317,124.022H188.682z M357.853,481.648l-88.514-163.075c-2.655-4.891-7.773-7.936-13.338-7.936    c-5.565,0-10.684,3.045-13.338,7.936l-88.514,163.075h-93.34l195.196-359.6l195.187,359.6H357.853z" fill="#00bfd6" data-original="#000000" style=""/>
	</g>
</g>
<g xmlns="http://www.w3.org/2000/svg">
	<g>
		<path d="M272.189,255.328h-32.376c-8.381,0-15.176,6.795-15.176,15.176c0,8.381,6.795,15.176,15.176,15.176h32.376    c8.381,0,15.176-6.795,15.176-15.176C287.365,262.123,280.57,255.328,272.189,255.328z" fill="#00bfd6" data-original="#000000" style=""/>
	</g>
</g>
<g xmlns="http://www.w3.org/2000/svg">
	<g>
		<path d="M272.189,204.402h-32.376c-8.382,0-15.176,6.795-15.176,15.176c0,8.381,6.795,15.176,15.176,15.176h32.376    c8.381,0,15.176-6.795,15.176-15.176C287.365,211.197,280.57,204.402,272.189,204.402z" fill="#00bfd6" data-original="#000000" style=""/>
	</g>
</g>
<g xmlns="http://www.w3.org/2000/svg">
</g>
<g xmlns="http://www.w3.org/2000/svg">
</g>
<g xmlns="http://www.w3.org/2000/svg">
</g>
<g xmlns="http://www.w3.org/2000/svg">
</g>
<g xmlns="http://www.w3.org/2000/svg">
</g>
<g xmlns="http://www.w3.org/2000/svg">
</g>
<g xmlns="http://www.w3.org/2000/svg">
</g>
<g xmlns="http://www.w3.org/2000/svg">
</g>
<g xmlns="http://www.w3.org/2000/svg">
</g>
<g xmlns="http://www.w3.org/2000/svg">
</g>
<g xmlns="http://www.w3.org/2000/svg">
</g>
<g xmlns="http://www.w3.org/2000/svg">
</g>
<g xmlns="http://www.w3.org/2000/svg">
</g>
<g xmlns="http://www.w3.org/2000/svg">
</g>
<g xmlns="http://www.w3.org/2000/svg">
</g>
</g></svg>
